<?xml version="1.0" encoding="utf-8"?>
<!-- Generator: Adobe Illustrator 23.1.0, SVG Export Plug-In . SVG Version: 6.00 Build 0)  -->
<svg version="1.1" id="Calque_1" xmlns="http://www.w3.org/2000/svg" xmlns:xlink="http://www.w3.org/1999/xlink" x="0px" y="0px"
	 viewBox="0 0 193.6 55.8" style="enable-background:new 0 0 193.6 55.8;" xml:space="preserve">
<style type="text/css">
	.st0{fill:url(#SVGID_1_);}
	.st1{fill:url(#SVGID_2_);}
	.st2{fill:url(#SVGID_3_);}
	.st3{fill:url(#SVGID_4_);}
	.st4{fill:url(#SVGID_5_);}
</style>
<g>
	<path d="M130.2,41.3c1.7,0,2.6,0.8,2.6,2.3c0,1.5-1,2.4-2.6,2.4h-1.5v2h-1.1v-6.6H130.2z M128.7,44.9h1.5c1,0,1.6-0.4,1.6-1.3
		c0-0.9-0.6-1.3-1.6-1.3h-1.5V44.9z"/>
	<path d="M138.6,45.4c0,1.5-1.1,2.6-2.6,2.6c-1.6,0-2.6-1-2.6-2.6c0-1.5,1.1-2.5,2.6-2.5C137.6,42.8,138.6,43.9,138.6,45.4z
		 M134.5,45.4c0,1,0.6,1.6,1.5,1.6c0.9,0,1.5-0.7,1.5-1.6c0-1-0.6-1.6-1.5-1.6C135.1,43.8,134.5,44.4,134.5,45.4z"/>
	<path d="M144.6,47.9h-1.1v-0.9c-0.4,0.6-1,0.9-1.8,0.9c-1.4,0-2.4-1-2.4-2.6c0-1.5,1-2.5,2.4-2.5c0.8,0,1.4,0.3,1.8,0.9v-2.9h1.1
		V47.9z M143.5,45.4c0-1-0.6-1.7-1.5-1.7c-0.9,0-1.5,0.7-1.5,1.7c0,1,0.6,1.6,1.5,1.6C142.8,47.1,143.5,46.4,143.5,45.4z"/>
	<path d="M150.3,43.7l-0.6,0.7c-0.3-0.4-0.8-0.6-1.4-0.6c-0.9,0-1.5,0.7-1.5,1.6s0.6,1.6,1.5,1.6c0.6,0,1.1-0.2,1.5-0.6l0.6,0.6
		c-0.5,0.6-1.2,0.9-2.1,0.9c-1.5,0-2.5-1-2.5-2.5c0-1.5,1-2.6,2.5-2.6C149.2,42.8,149.9,43.1,150.3,43.7z"/>
	<path d="M154.3,47.3c-0.4,0.4-0.9,0.7-1.7,0.7c-1.1,0-1.8-0.7-1.8-1.6c0-0.9,0.7-1.5,1.9-1.5h1.5v-0.2c0-0.6-0.4-1-1.2-1
		c-0.5,0-1,0.2-1.5,0.5l-0.4-0.8c0.7-0.4,1.2-0.6,2.2-0.6c1.3,0,2,0.7,2,1.8l0,3.3h-1.1V47.3z M154.3,46.1v-0.5H153
		c-0.7,0-1,0.2-1,0.7c0,0.5,0.4,0.7,1,0.7C153.7,47.1,154.3,46.7,154.3,46.1z"/>
	<path d="M160.1,43.3l-0.4,0.8c-0.4-0.3-1-0.4-1.4-0.4c-0.4,0-0.7,0.1-0.7,0.5c0,0.9,2.7,0.4,2.7,2.2c0,1-0.9,1.5-1.9,1.5
		c-0.7,0-1.5-0.2-2-0.7l0.4-0.8c0.4,0.4,1.1,0.6,1.7,0.6c0.5,0,0.8-0.2,0.8-0.5c0-1-2.6-0.5-2.6-2.3c0-1,0.9-1.5,1.9-1.5
		C159,42.8,159.7,43,160.1,43.3z"/>
	<path d="M164.1,47.6c-0.4,0.2-0.8,0.4-1.2,0.4c-0.8,0-1.4-0.4-1.4-1.5v-2.6h-0.7v-0.8h0.7v-1.4h1.1v1.4h1.5v0.8h-1.5v2.4
		c0,0.5,0.2,0.7,0.5,0.7c0.2,0,0.5-0.1,0.8-0.2L164.1,47.6z"/>
	<path d="M171.4,47.1c-0.6,0.6-1.3,0.9-2,0.9c-1.2,0-2.1-0.8-2.1-1.9c0-0.9,0.7-1.4,1.4-1.8c-0.4-0.6-0.6-1.1-0.6-1.5
		c0-0.9,0.7-1.5,1.7-1.5c1,0,1.7,0.6,1.7,1.4c0,0.9-0.8,1.4-1.6,1.8c0.4,0.4,0.8,0.9,1.4,1.4c0.2-0.3,0.4-0.7,0.6-1.2l0.7,0.5
		c-0.2,0.5-0.4,0.9-0.7,1.3l1.1,1l-0.6,0.6L171.4,47.1z M170.8,46.5c-0.7-0.7-1.2-1.2-1.6-1.7c-0.5,0.3-1,0.7-1,1.2
		c0,0.7,0.5,1.1,1.2,1.1C169.9,47.1,170.4,46.9,170.8,46.5z M169.5,43.9c0.6-0.3,1.2-0.7,1.2-1.3c0-0.4-0.3-0.7-0.8-0.7
		c-0.5,0-0.9,0.3-0.9,0.8C169,43.1,169.1,43.5,169.5,43.9z"/>
	<path d="M180.3,46.9v1h-4v-6.6h1.1v5.6H180.3z"/>
	<path d="M182.5,41.5c0,0.4-0.3,0.7-0.6,0.7c-0.4,0-0.6-0.3-0.6-0.7c0-0.4,0.3-0.7,0.6-0.7C182.2,40.8,182.5,41.1,182.5,41.5z
		 M181.3,47.9v-5h1.1v5H181.3z"/>
	<path d="M185.1,47.9l-1.9-5h1.1l1.4,4l1.4-4h1.1l-1.9,5H185.1z"/>
	<path d="M193.2,45.8h-3.8c0.2,0.8,0.8,1.3,1.6,1.3c0.5,0,1-0.2,1.4-0.6l0.6,0.6c-0.5,0.5-1.2,0.9-2.1,0.9c-1.5,0-2.6-1-2.6-2.5
		c0-1.5,1-2.5,2.5-2.6C192.6,42.8,193.3,44,193.2,45.8z M192.2,45c0-0.8-0.6-1.3-1.4-1.3c-0.8,0-1.4,0.5-1.5,1.3H192.2z"/>
</g>
<g>
	<path d="M32.7,15.6c0,8.7-7.1,15.5-16.2,15.5S0.4,24.3,0.4,15.6c0-8.8,7.1-15.4,16.2-15.4S32.7,6.9,32.7,15.6z M5.7,15.6
		c0,6.1,5,10.8,11,10.8s10.8-4.8,10.8-10.8c0-6.1-4.9-10.8-10.8-10.8C10.6,4.9,5.7,9.6,5.7,15.6z"/>
	<path d="M59.2,11.3l-2.7,3.2c-1.6-1.7-3.8-2.7-6.6-2.6c-4,0-6.9,3-6.9,7.4c0,4.4,2.9,7.4,6.9,7.4c2.9,0,5.3-1,6.8-2.8l2.8,2.8
		C57.3,29.5,54,31,49.6,31c-6.9,0-11.7-4.7-11.7-11.7c0-7,4.8-11.8,11.7-11.8C53.8,7.5,57,8.9,59.2,11.3z"/>
	<path d="M79.9,29.4c-1.8,1.1-3.7,1.7-5.7,1.7c-3.5,0-6.5-2-6.5-6.7v-12h-3.3V8.6h3.3V2.2h5v6.4h6.8v3.7h-6.8v11.1
		c0,2.4,0.9,3.1,2.5,3.1c1,0,2.1-0.3,3.5-1L79.9,29.4z"/>
	<path d="M140.2,19.4c0,6.9-4.4,11.7-11,11.7c-3.7,0-6.5-1.5-8.2-4.2v21h-5V7.7h5v4c1.7-2.7,4.5-4.2,8.1-4.2
		C135.7,7.5,140.2,12.3,140.2,19.4z M135.2,19.2c0-4.3-2.9-7.5-7.1-7.5c-4.1,0-7.1,3.1-7.1,7.5c0,4.5,2.9,7.6,7.1,7.6
		C132.3,26.8,135.2,23.6,135.2,19.2z"/>
	<path d="M168.7,30.9h-5v-4.5c-1.6,3.2-4.5,4.7-8.3,4.7c-5.3,0-8.5-3.4-8.5-8.9V7.7h5v13c0,3.5,2,5.6,5.4,5.6c4-0.1,6.4-3.2,6.4-7.2
		V7.7h5V30.9z"/>
	<path d="M193.2,9.8l-1.8,3.7c-2-1.3-4.6-2-6.7-2c-2,0-3.4,0.7-3.4,2.3c0,4.3,12.3,2,12.3,10.4c0,4.7-4.2,6.9-8.9,6.9
		c-3.4,0-7-1.1-9.3-3.2l1.8-3.6c2,1.8,5.2,2.9,7.7,2.9c2.1,0,3.8-0.7,3.8-2.5c0-4.7-12.2-2.1-12.1-10.4c0-4.7,4.1-6.7,8.5-6.7
		C188.1,7.5,191.2,8.4,193.2,9.8z"/>
</g>
<g>
	<linearGradient id="SVGID_1_" gradientUnits="userSpaceOnUse" x1="94.4164" y1="38.1055" x2="105.4353" y2="49.1244">
		<stop  offset="7.179065e-03" style="stop-color:#DFD900"/>
		<stop  offset="0.9949" style="stop-color:#54B17B"/>
	</linearGradient>
	<path class="st0" d="M94.1,38.4c-1.8,2-2.5,4.9-1.6,7.7c1.3,4.1,5.8,6.3,9.9,5c4.1-1.3,6.3-5.8,5-9.9c-0.5-1.7-1.6-3-2.9-3.9
		l-0.9,1c1.1,0.8,2.1,1.9,2.5,3.3c1.1,3.4-0.7,7-4.1,8.2c-3.4,1.1-7-0.7-8.2-4.1c-0.7-2.3-0.2-4.6,1.3-6.3L94.1,38.4z"/>
	<linearGradient id="SVGID_2_" gradientUnits="userSpaceOnUse" x1="85.2447" y1="28.7365" x2="108.708" y2="52.1998">
		<stop  offset="7.179065e-03" style="stop-color:#DFD900"/>
		<stop  offset="0.9949" style="stop-color:#54B17B"/>
	</linearGradient>
	<path class="st1" d="M88.6,47.4c2.1,6.4,9,9.8,15.3,7.7c6.4-2.1,9.8-9,7.7-15.3c-0.8-2.5-2.4-4.5-4.4-6l-0.9,1
		c1.8,1.3,3.2,3.1,4,5.4c1.9,5.7-1.2,11.8-6.9,13.7c-5.7,1.9-11.8-1.2-13.7-6.9c-1.3-3.8-0.3-7.8,2.2-10.6l-1-0.9
		c-0.7,0.7-1.2,1.6-1.7,2.5c-0.1,0-1.9,0.1-2.5-1.3c0,0-0.4-1.4,0.6-2.3l-0.9-1c-1.6,1.5-1,3.6-1,3.7c0.6,1.6,2,2.1,3.1,2.2
		c-0.4,0.9-0.6,1.9-0.7,3c-0.9-0.2-3.4-0.9-4.6-3c-1.1-1.9-0.9-4.6,0.5-7.9l-0.9-0.4c-0.3,0.5-0.6,0.9-0.9,1.4c-1,3-1,5.5,0.2,7.5
		c1.6,2.8,4.8,3.5,5.7,3.7C88,44.8,88.2,46.1,88.6,47.4z"/>
	<linearGradient id="SVGID_3_" gradientUnits="userSpaceOnUse" x1="97.4466" y1="41.1256" x2="102.393" y2="46.072">
		<stop  offset="7.179065e-03" style="stop-color:#DFD900"/>
		<stop  offset="0.9949" style="stop-color:#54B17B"/>
	</linearGradient>
	<path class="st2" d="M101,46.9c1.8-0.6,2.8-2.6,2.2-4.4c-0.6-1.8-2.6-2.8-4.4-2.2c-1.8,0.6-2.8,2.6-2.2,4.4
		C97.2,46.5,99.2,47.5,101,46.9z M99.2,41.5c1.1-0.4,2.4,0.2,2.7,1.4c0.4,1.1-0.2,2.4-1.4,2.7c-1.1,0.4-2.4-0.2-2.7-1.4
		C97.5,43.1,98.1,41.9,99.2,41.5z"/>
</g>
<linearGradient id="SVGID_4_" gradientUnits="userSpaceOnUse" x1="89.1003" y1="10.9395" x2="106.2315" y2="28.0708">
	<stop  offset="7.179065e-03" style="stop-color:#DFD900"/>
	<stop  offset="0.9949" style="stop-color:#54B17B"/>
</linearGradient>
<path class="st3" d="M97.7,31.6c6.7,0,12.1-5.4,12.1-12.1S104.3,7.4,97.7,7.4c-6.7,0-12.1,5.4-12.1,12.1S91,31.6,97.7,31.6z"/>
<linearGradient id="SVGID_5_" gradientUnits="userSpaceOnUse" x1="86.9488" y1="8.8697" x2="108.3836" y2="30.3045">
	<stop  offset="7.179065e-03" style="stop-color:#DFD900"/>
	<stop  offset="0.9949" style="stop-color:#54B17B"/>
</linearGradient>
<path class="st4" d="M97.7,34.8c8.4,0,15.2-6.8,15.2-15.2S106,4.4,97.7,4.4s-15.2,6.8-15.2,15.2S89.3,34.8,97.7,34.8z M97.7,5.7
	c7.7,0,13.9,6.3,13.9,13.9s-6.3,13.9-13.9,13.9c-7.7,0-13.9-6.3-13.9-13.9S90,5.7,97.7,5.7z"/>
</svg>
